<svg xmlns="http://www.w3.org/2000/svg" xmlns:xlink="http://www.w3.org/1999/xlink" id="eKmOPoWapLj1" shape-rendering="geometricPrecision" text-rendering="geometricPrecision" project-id="8280abb445b74903ae2db45d5d29132a" export-id="359ee7e42923404a99e4b1844717619d" cached="false" viewBox="139 71.5 22 157"><rect width="20" height="156" rx="0" ry="0" transform="translate(140 72)" fill="#808080" stroke="#000"/><polygon points="63.115902,22.72 33.371967,22.72 18.5,50 33.371967,77.28 63.115902,77.28 77.987869,50 63.115902,22.72" transform="matrix(0 0.963688-.366568 0 168.3284 103.507899)" fill="#ff9800" stroke="#000"/><line x1="-9.999988" y1="0" x2="9.999988" y2="0" transform="translate(149.999988 150)" fill="none" stroke="#000" stroke-width="2"/><rect width="17.801735" height="18.601502" rx="0" ry="0" transform="matrix(.397212 0.397212-.380134 0.380134 149.999988 101.693991)" fill="#f00" stroke="#000"/><rect width="30" height="10.190337" rx="0" ry="0" transform="matrix(.019141 0 0 0.539727 149.712885 115.836127)" stroke-width="0"/><rect width="30" height="10.190337" rx="0" ry="0" transform="matrix(0 0.019141-.313363 0 159.999991 108.477944)" stroke-width="0"/><rect width="30" height="10.190337" rx="0" ry="0" transform="matrix(0 0.019141-.313363 0 142.92892 108.477944)" stroke-width="0"/></svg>