<svg xmlns="http://www.w3.org/2000/svg" xmlns:xlink="http://www.w3.org/1999/xlink" id="eKjn1iDcM261" shape-rendering="geometricPrecision" text-rendering="geometricPrecision" project-id="f3246fc572d343f89f5d2f7a3dd1985c" export-id="b4e526178d3341e887cf13dce706d7a2" cached="false" viewBox="139.41 71.5 21.44 157"><g transform="translate(26.019348-.000007)"><rect width="20" height="156" rx="0" ry="0" transform="matrix(1 0 0 0.354878 113.892977 72)" fill="#808080" stroke="#000"/><rect width="30" height="10.190337" rx="0" ry="0" transform="matrix(.019141 0 0 0.539727 123.605862 94.180484)" stroke-width="0"/><rect width="17.801735" height="18.601502" rx="0" ry="0" transform="matrix(.397212 0.397212-.380134 0.380134 123.892977 80.038348)" fill="#0fff00" stroke="#000"/><rect width="30" height="10.190337" rx="0" ry="0" transform="matrix(0 0.019141-.313363 0 116.821908 86.822301)" stroke-width="0"/><rect width="30" height="10.190337" rx="0" ry="0" transform="matrix(0 0.019141-.313363 0 134.15732 86.822301)" stroke-width="0"/><rect width="20" height="156" rx="0" ry="0" transform="matrix(1 0 0 0.354878 114.33267 172.639032)" fill="#808080" stroke="#000"/><g transform="translate(53.378403-15.866036)"><rect width="20" height="15.893232" rx="0" ry="0" transform="matrix(1 0 0 0.931155 60.514574 129.411331)" fill="#ff9800" stroke="#000"/><polygon points="50,23.15 19,76.85 81,76.85 50,23.15" transform="matrix(.308397 0 0 0.258517 55.094724 109.970294)" fill="#ff9800"/><polyline points="12.79,40 22.79,60 32.79,40" transform="matrix(-1 0 0-.734962 93.304574 159.64424)" fill="none" stroke="#000" stroke-width="0.66" stroke-linecap="round" stroke-linejoin="round"/><line x1="-9.560307" y1="0" x2="9.560307" y2="0" transform="translate(70.514574 129.837325)" fill="none" stroke="#ff9800" stroke-width="0.25"/></g><g transform="matrix(-1 0 0-1 194.847243 316.84942)"><rect width="20" height="15.893232" rx="0" ry="0" transform="matrix(1 0 0 0.931155 60.514574 129.411331)" fill="#ff9800" stroke="#000"/><polygon points="50,23.15 19,76.85 81,76.85 50,23.15" transform="matrix(.308397 0 0 0.258517 55.094724 109.970294)" fill="#ff9800"/><polyline points="12.79,40 22.79,60 32.79,40" transform="matrix(-1 0 0-.734962 93.304574 159.64424)" fill="none" stroke="#000" stroke-width="0.66" stroke-linecap="round" stroke-linejoin="round"/><line x1="-9.560307" y1="0" x2="9.560307" y2="0" transform="translate(70.514574 129.837325)" fill="none" stroke="#ff9800" stroke-width="0.25"/></g></g></svg>