<svg xmlns="http://www.w3.org/2000/svg" xmlns:xlink="http://www.w3.org/1999/xlink" id="e9nBvx2YRhW1" viewBox="0 0 300 300" shape-rendering="geometricPrecision" text-rendering="geometricPrecision" project-id="fa3cc4141e794c2b889c0e25df557105" export-id="9494520b5545495fa87c699005c88377" cached="false" width="300" height="300"><rect width="300" height="293.236963" rx="0" ry="0" transform="matrix(1 0 0 1.023063 0 0.000057)" fill="#808080" stroke="#808080"/><rect width="220" height="220" rx="0" ry="0" transform="translate(40.134254 40.131724)" fill="#09ff00" stroke-width="0"/><line x1="24.819308" y1="-25.038719" x2="-25.180692" y2="24.961281" transform="translate(25.180692 25.03872)" fill="none" stroke="#808080" stroke-width="3"/><line x1="24.819308" y1="-25.038719" x2="-25.180692" y2="24.961281" transform="translate(275.180692 275.038719)" fill="none" stroke="#808080" stroke-width="3"/><line x1="24.42519" y1="-25.038719" x2="-25.180692" y2="23.67399" transform="matrix(1.209534 0 0 1.222063 235.180692 235.038719)" fill="none" stroke="#808080" stroke-width="3"/><line x1="23.465879" y1="-25.038719" x2="-25.180692" y2="24.114092" transform="matrix(1.233386 0 0 1.220683 65.180692 65.038719)" fill="none" stroke="#808080" stroke-width="3"/><line x1="24.819308" y1="-25.038719" x2="-25.180692" y2="24.961281" transform="matrix(0-1 1 0 275.038719 24.819308)" fill="none" stroke="#808080" stroke-width="3"/><line x1="24.819308" y1="-25.038719" x2="-25.180692" y2="24.961281" transform="matrix(0-1 1 0 25.038719 274.819308)" fill="none" stroke="#808080" stroke-width="3"/><line x1="34.819308" y1="-25.038719" x2="-25.180692" y2="34.961281" transform="matrix(0-1 1 0 59.161898 238.789134)" fill="none" stroke="#808080" stroke-width="3"/><line x1="34.819308" y1="-25.038719" x2="-25.180692" y2="34.961281" transform="matrix(0-1 1 0 229.762509 68.766172)" fill="none" stroke="#808080" stroke-width="3"/><rect width="74.109448" height="54.594734" rx="0" ry="0" transform="matrix(.707107-.707107 0.588084 0.588084 249.854191 302.540866)" fill="#fff" stroke-width="0"/><rect width="74.109448" height="54.594734" rx="0" ry="0" transform="matrix(.707107-.707107 0.588084 0.588084-34.509568 17.893726)" fill="#fff" stroke-width="0"/><rect width="74.109448" height="54.594734" rx="0" ry="0" transform="matrix(-.707107-.707107 0.588084-.588084 17.893725 334.509568)" fill="#fff" stroke-width="0"/><rect width="74.109448" height="54.594734" rx="0" ry="0" transform="matrix(-.707107-.707107 0.588084-.588084 302.403293 50)" fill="#fff" stroke-width="0"/><rect width="45.937976" height="47.248235" rx="0" ry="0" transform="matrix(1.149189-1.149189 0.662257 0.662257 7.745216 60.536611)" fill="#808080" stroke-width="0"/><rect width="45.937976" height="47.248235" rx="0" ry="0" transform="matrix(1.149189-1.149189 0.662257 0.662257 207.813253 260.964304)" fill="#808080" stroke-width="0"/><rect width="45.937976" height="47.248235" rx="0" ry="0" transform="matrix(-1.149189-1.149189 0.662257-.662257 260.964304 91.827091)" fill="#808080" stroke-width="0"/><rect width="45.937976" height="47.248235" rx="0" ry="0" transform="matrix(-1.149189-1.149189 0.662257-.662257 60.536611 292.040938)" fill="#808080" stroke-width="0"/><ellipse rx="24.39145" ry="23.100365" transform="matrix(1.537424 0 0 1.623351 150 98.01361)" stroke-width="0" fill="#000000"/><line x1="10.038627" y1="-37.016657" x2="-10.038627" y2="37.016657" transform="translate(122.538626 166.953169)" fill="none" stroke="#000" stroke-width="3"/><line x1="10.038627" y1="-37.016657" x2="-10.038627" y2="37.016657" transform="matrix(-1 0 0 1 177.461374 166.953169)" fill="none" stroke="#000" stroke-width="3"/><line x1="-37.500001" y1="0" x2="37.500001" y2="0" transform="matrix(.961363 0 0-1 149.946298 203.062452)" fill="none" stroke="#000" stroke-width="3"/><rect width="36.710292" height="72.437273" rx="0" ry="0" transform="translate(131.917907 130.183719)" stroke-width="0" fill="#000000"/><rect width="28.18826" height="67.520715" rx="0" ry="0" transform="matrix(.968092 0.250596-.250596 0.968092 131.650276 131.662265)" stroke-width="0" fill="#000000"/><rect width="28.18826" height="67.520715" rx="0" ry="0" transform="matrix(-.964716 0.263291 0.263291 0.964716 166.944706 129.685298)" stroke-width="0" fill="#000000"/><rect width="19.363369" height="6.454456" rx="0" ry="0" transform="translate(113.839444 196.081852)" stroke-width="0" fill="#000000"/><rect width="17.650963" height="8.43031" rx="0" ry="0" transform="translate(167.977843 194.369445)" stroke-width="0" fill="#000000"/></svg>